REM DIRINDEX 1\2,1\3,1\4,1\5,1\6
REM DIRNAME cjc091,folder01,folder02,folder03,folder04,folder05
TITLE ""
FILE "CD2-35.mp3" MP3
  TRACK 01 AUDIO
    TITLE "6:cjc091_2205"
    INDEX 01 00:00:00
  TRACK 02 AUDIO
    TITLE "0:"
    INDEX 01 00:02:06
  TRACK 03 AUDIO
    TITLE "2:cjc091_2206"
    INDEX 01 00:03:21
  TRACK 04 AUDIO
    TITLE "0:"
    INDEX 01 00:04:50
  TRACK 05 AUDIO
    TITLE "3:cjc091_2207"
    INDEX 01 00:04:60
  TRACK 06 AUDIO
    TITLE "0:"
    INDEX 01 00:05:67
  TRACK 07 AUDIO
    TITLE "4:cjc091_2208"
    INDEX 01 00:06:10
  TRACK 08 AUDIO
    TITLE "0:"
    INDEX 01 00:12:32
  TRACK 09 AUDIO
    TITLE "2:cjc091_2209"
    INDEX 01 00:13:43
  TRACK 10 AUDIO
    TITLE "0:"
    INDEX 01 00:15:17
  TRACK 11 AUDIO
    TITLE "3:cjc091_2210"
    INDEX 01 00:15:42
  TRACK 12 AUDIO
    TITLE "0:"
    INDEX 01 00:18:11
  TRACK 13 AUDIO
    TITLE "4:cjc091_2211"
    INDEX 01 00:18:33
  TRACK 14 AUDIO
    TITLE "0:"
    INDEX 01 00:23:32
  TRACK 15 AUDIO
    TITLE "2:cjc091_2212"
    INDEX 01 00:24:45
  TRACK 16 AUDIO
    TITLE "0:"
    INDEX 01 00:26:11
  TRACK 17 AUDIO
    TITLE "3:cjc091_2213"
    INDEX 01 00:26:17
  TRACK 18 AUDIO
    TITLE "0:"
    INDEX 01 00:27:16
  TRACK 19 AUDIO
    TITLE "4:cjc091_2214"
    INDEX 01 00:27:39
  TRACK 20 AUDIO
    TITLE "0:"
    INDEX 01 00:31:37
  TRACK 21 AUDIO
    TITLE "2:cjc091_2215"
    INDEX 01 00:32:48
  TRACK 22 AUDIO
    TITLE "0:"
    INDEX 01 00:33:69
  TRACK 23 AUDIO
    TITLE "3:cjc091_2216"
    INDEX 01 00:34:00
  TRACK 24 AUDIO
    TITLE "0:"
    INDEX 01 00:35:10
  TRACK 25 AUDIO
    TITLE "4:cjc091_2217"
    INDEX 01 00:35:29
  TRACK 26 AUDIO
    TITLE "0:"
    INDEX 01 00:40:01
  TRACK 27 AUDIO
    TITLE "2:cjc091_2218"
    INDEX 01 00:41:20
  TRACK 28 AUDIO
    TITLE "0:"
    INDEX 01 00:42:47
  TRACK 29 AUDIO
    TITLE "3:cjc091_2219"
    INDEX 01 00:42:66
  TRACK 30 AUDIO
    TITLE "0:"
    INDEX 01 00:44:65
  TRACK 31 AUDIO
    TITLE "4:cjc091_2220"
    INDEX 01 00:45:08
  TRACK 32 AUDIO
    TITLE "0:"
    INDEX 01 00:47:64
  TRACK 33 AUDIO
    TITLE "2:cjc091_2221"
    INDEX 01 00:49:04
  TRACK 34 AUDIO
    TITLE "0:"
    INDEX 01 00:50:42
  TRACK 35 AUDIO
    TITLE "3:cjc091_2222"
    INDEX 01 00:50:62
  TRACK 36 AUDIO
    TITLE "0:"
    INDEX 01 00:52:41
  TRACK 37 AUDIO
    TITLE "4:cjc091_2223"
    INDEX 01 00:52:59
  TRACK 38 AUDIO
    TITLE "0:"
    INDEX 01 00:57:70
  TRACK 39 AUDIO
    TITLE "2:cjc091_2224"
    INDEX 01 00:59:12
  TRACK 40 AUDIO
    TITLE "0:"
    INDEX 01 01:00:27
  TRACK 41 AUDIO
    TITLE "3:cjc091_2225"
    INDEX 01 01:00:37
  TRACK 42 AUDIO
    TITLE "0:"
    INDEX 01 01:01:52
  TRACK 43 AUDIO
    TITLE "4:cjc091_2226"
    INDEX 01 01:01:74
  TRACK 44 AUDIO
    TITLE "0:"
    INDEX 01 01:05:24
  TRACK 45 AUDIO
    TITLE "2:cjc091_2227"
    INDEX 01 01:06:38
  TRACK 46 AUDIO
    TITLE "0:"
    INDEX 01 01:07:53
  TRACK 47 AUDIO
    TITLE "3:cjc091_2228"
    INDEX 01 01:07:63
  TRACK 48 AUDIO
    TITLE "0:"
    INDEX 01 01:09:03
  TRACK 49 AUDIO
    TITLE "4:cjc091_2229"
    INDEX 01 01:09:20
  TRACK 50 AUDIO
    TITLE "0:"
    INDEX 01 01:11:37
  TRACK 51 AUDIO
    TITLE "2:cjc091_2230"
    INDEX 01 01:12:52
  TRACK 52 AUDIO
    TITLE "0:"
    INDEX 01 01:13:73
  TRACK 53 AUDIO
    TITLE "3:cjc091_2231"
    INDEX 01 01:14:00
  TRACK 54 AUDIO
    TITLE "0:"
    INDEX 01 01:15:23
  TRACK 55 AUDIO
    TITLE "4:cjc091_2232"
    INDEX 01 01:15:44
  TRACK 56 AUDIO
    TITLE "0:"
    INDEX 01 01:19:13
  TRACK 57 AUDIO
    TITLE "2:cjc091_2233"
    INDEX 01 01:20:34
  TRACK 58 AUDIO
    TITLE "0:"
    INDEX 01 01:22:13
  TRACK 59 AUDIO
    TITLE "3:cjc091_2234"
    INDEX 01 01:22:35
  TRACK 60 AUDIO
    TITLE "0:"
    INDEX 01 01:23:44
  TRACK 61 AUDIO
    TITLE "4:cjc091_2235"
    INDEX 01 01:23:63
  TRACK 62 AUDIO
    TITLE "0:"
    INDEX 01 01:27:65
  TRACK 63 AUDIO
    TITLE "2:cjc091_2236"
    INDEX 01 01:28:74
  TRACK 64 AUDIO
    TITLE "0:"
    INDEX 01 01:30:09
  TRACK 65 AUDIO
    TITLE "3:cjc091_2237"
    INDEX 01 01:30:28
  TRACK 66 AUDIO
    TITLE "0:"
    INDEX 01 01:32:04
  TRACK 67 AUDIO
    TITLE "4:cjc091_2238"
    INDEX 01 01:32:23
  TRACK 68 AUDIO
    TITLE "0:"
    INDEX 01 01:34:65
  TRACK 69 AUDIO
    TITLE "2:cjc091_2239"
    INDEX 01 01:36:03
  TRACK 70 AUDIO
    TITLE "0:"
    INDEX 01 01:37:38
  TRACK 71 AUDIO
    TITLE "3:cjc091_2240"
    INDEX 01 01:37:52
  TRACK 72 AUDIO
    TITLE "0:"
    INDEX 01 01:38:59
  TRACK 73 AUDIO
    TITLE "4:cjc091_2241"
    INDEX 01 01:38:73
  TRACK 74 AUDIO
    TITLE "0:"
    INDEX 01 01:41:61
  TRACK 75 AUDIO
    TITLE "2:cjc091_2242"
    INDEX 01 01:43:00
  TRACK 76 AUDIO
    TITLE "0:"
    INDEX 01 01:44:23
  TRACK 77 AUDIO
    TITLE "3:cjc091_2243"
    INDEX 01 01:44:44
  TRACK 78 AUDIO
    TITLE "0:"
    INDEX 01 01:46:41
  TRACK 79 AUDIO
    TITLE "4:cjc091_2244"
    INDEX 01 01:46:65
  TRACK 80 AUDIO
    TITLE "0:"
    INDEX 01 01:49:35
  TRACK 81 AUDIO
    TITLE "2:cjc091_2245"
    INDEX 01 01:50:47
  TRACK 82 AUDIO
    TITLE "0:"
    INDEX 01 01:51:48
  TRACK 83 AUDIO
    TITLE "3:cjc091_2246"
    INDEX 01 01:51:66
  TRACK 84 AUDIO
    TITLE "0:"
    INDEX 01 01:53:29
  TRACK 85 AUDIO
    TITLE "4:cjc091_2247"
    INDEX 01 01:53:45
  TRACK 86 AUDIO
    TITLE "0:"
    INDEX 01 01:56:04
  TRACK 87 AUDIO
    TITLE "2:cjc091_2248"
    INDEX 01 01:57:11
  TRACK 88 AUDIO
    TITLE "0:"
    INDEX 01 01:58:70
  TRACK 89 AUDIO
    TITLE "3:cjc091_2249"
    INDEX 01 01:59:10
  TRACK 90 AUDIO
    TITLE "0:"
    INDEX 01 02:00:65
  TRACK 91 AUDIO
    TITLE "4:cjc091_2250"
    INDEX 01 02:01:09
  TRACK 92 AUDIO
    TITLE "0:"
    INDEX 01 02:03:59
